<?xml version="1.0" standalone="no"?><!DOCTYPE svg PUBLIC "-//W3C//DTD SVG 1.1//EN" "http://www.w3.org/Graphics/SVG/1.1/DTD/svg11.dtd"><svg t="1684242538597" class="icon" viewBox="0 0 1365 1024" version="1.1" xmlns="http://www.w3.org/2000/svg" p-id="2540" xmlns:xlink="http://www.w3.org/1999/xlink" width="266.6015625" height="200"><path d="M1211.733 0H153.6C68.267 0 0 68.267 0 153.6v708.267c0 85.333 68.267 153.6 153.6 153.6h1058.133c85.334 0 153.6-68.267 153.6-153.6V153.6c0-85.333-68.266-153.6-153.6-153.6z m76.8 870.4c0 42.667-34.133 76.8-76.8 76.8H153.6c-42.667 0-76.8-34.133-76.8-76.8V153.6c0-42.667 34.133-76.8 76.8-76.8h1058.133c42.667 0 76.8 34.133 76.8 76.8v716.8z" p-id="2541"></path><path d="M1066.667 546.133c42.666-34.133 68.266-85.333 68.266-145.066 0-110.934-85.333-196.267-187.733-196.267s-187.733 85.333-187.733 196.267c0 59.733 25.6 110.933 68.266 145.066C742.4 588.8 682.667 682.667 682.667 785.067c0 25.6 17.066 42.666 34.133 42.666s34.133-17.066 34.133-42.666c0-110.934 85.334-196.267 187.734-196.267S1126.4 674.133 1126.4 785.067c0 25.6 17.067 42.666 34.133 42.666s34.134-17.066 34.134-42.666c17.066-102.4-42.667-196.267-128-238.934z m-230.4-153.6c0-68.266 51.2-119.466 110.933-119.466 59.733 0 110.933 51.2 110.933 119.466 0 68.267-51.2 119.467-110.933 119.467-59.733 0-110.933-51.2-110.933-119.467zM648.533 273.067h-460.8c-17.066 0-34.133 17.066-34.133 42.666s17.067 42.667 34.133 42.667H640c25.6 0 42.667-25.6 42.667-42.667s-17.067-42.666-34.134-42.666z m-42.666 196.266H187.733c-17.066 0-34.133 17.067-34.133 42.667s17.067 42.667 34.133 42.667h418.134C622.933 554.667 640 537.6 640 512s-8.533-42.667-34.133-42.667zM494.933 665.6h-307.2c-17.066 0-34.133 25.6-34.133 42.667 0 25.6 17.067 42.666 34.133 42.666h307.2c17.067 0 34.134-17.066 34.134-42.666 0-17.067-17.067-42.667-34.134-42.667z" p-id="2542"></path></svg>